HIERARCHY
ROOT SpineBase
{
  OFFSET 0.000000 0.000000 0.000000
  CHANNELS 6 Xposition Yposition Zposition Zrotation Xrotation Yrotation
  JOINT SpineMid
  {
    OFFSET -0.000000 29.811518 0.000000
    CHANNELS 3 Zrotation Xrotation Yrotation
    JOINT SpineShoulder
    {
      OFFSET -0.063085 22.209581 -0.705869
      CHANNELS 3 Zrotation Xrotation Yrotation
      JOINT Neck
      {
        OFFSET 0.002166 7.368362 -0.541877
        CHANNELS 3 Zrotation Xrotation Yrotation
        JOINT Head
        {
          OFFSET -5.429196 13.123928 0.365549
          CHANNELS 3 Zrotation Xrotation Yrotation
          End Site
          {
            OFFSET 0 0 0
          }
        }
      }
      JOINT ShoulderLeft
      {
        OFFSET -15.022436 -5.486160 7.358129
        CHANNELS 3 Zrotation Xrotation Yrotation
        JOINT ElbowLeft
        {
          OFFSET -0.351746 -26.565906 4.724715
          CHANNELS 3 Zrotation Xrotation Yrotation
          JOINT WristLeft
          {
            OFFSET -0.351207 -21.831661 -6.346361
            CHANNELS 3 Zrotation Xrotation Yrotation
            JOINT HandLeft
            {
              OFFSET 1.319935 2.235275 -1.007275
              CHANNELS 3 Zrotation Xrotation Yrotation
              JOINT HandTipLeft
              {
                OFFSET 0.605496 -0.198189 -1.711686
                CHANNELS 3 Zrotation Xrotation Yrotation
                End Site
                {
                  OFFSET 0 0 0
                }
              }
              JOINT ThumbLeft
              {
                OFFSET -0.227690 0.490111 -0.966637
                CHANNELS 3 Zrotation Xrotation Yrotation
                End Site
                {
                  OFFSET 0 0 0
                }
              }
            }
          }
        }
      }
      JOINT ShoulderRight
      {
        OFFSET 13.212159 -2.819960 -9.437664
        CHANNELS 3 Zrotation Xrotation Yrotation
        JOINT ElbowRight
        {
          OFFSET 8.009327 -24.989236 -0.818976
          CHANNELS 3 Zrotation Xrotation Yrotation
          JOINT WristRight
          {
            OFFSET -2.410373 -22.186798 -4.396771
            CHANNELS 3 Zrotation Xrotation Yrotation
            JOINT HandRight
            {
              OFFSET -1.233034 -2.192358 1.906001
              CHANNELS 3 Zrotation Xrotation Yrotation
              JOINT HandTipRight
              {
                OFFSET -1.006067 -7.314908 0.315392
                CHANNELS 3 Zrotation Xrotation Yrotation
                End Site
                {
                  OFFSET 0 0 0
                }
              }
              JOINT ThumbRight
              {
                OFFSET -3.104377 1.604369 -2.065600
                CHANNELS 3 Zrotation Xrotation Yrotation
                End Site
                {
                  OFFSET 0 0 0
                }
              }
            }
          }
        }
      }
    }
  }
  JOINT HipLeft
  {
    OFFSET -5.971691 0.272761 -0.483514
    CHANNELS 3 Zrotation Xrotation Yrotation
    JOINT KneeLeft
    {
      OFFSET 4.128510 -29.250641 6.203818
      CHANNELS 3 Zrotation Xrotation Yrotation
      JOINT AnkleLeft
      {
        OFFSET 5.110014 -31.821159 3.913822
        CHANNELS 3 Zrotation Xrotation Yrotation
        JOINT FootLeft
        {
          OFFSET 3.121527 -6.417603 -6.893060
          CHANNELS 3 Zrotation Xrotation Yrotation
          End Site
          {
            OFFSET 0 0 0
          }
        }
      }
    }
  }
  JOINT HipRight
  {
    OFFSET 6.686717 1.526817 -6.249084
    CHANNELS 3 Zrotation Xrotation Yrotation
    JOINT KneeRight
    {
      OFFSET 6.257854 -27.117725 3.955702
      CHANNELS 3 Zrotation Xrotation Yrotation
      JOINT AnkleRight
      {
        OFFSET 2.296951 -32.992244 6.544159
        CHANNELS 3 Zrotation Xrotation Yrotation
        JOINT FootRight
        {
          OFFSET -4.856128 -3.696342 -11.798198
          CHANNELS 3 Zrotation Xrotation Yrotation
          End Site
          {
            OFFSET 0 0 0
          }
        }
      }
    }
  }
}
MOTION
Frames: 9
Frame Time: 0.033333
-36.770305 69.695581 334.117323 -3.178321 2.088391 12.785593 -0.211560 0.033484 -12.833849 -0.154343 0.097649 -0.159596 -30.104632 7.475299 7.906667 0.000000 0.000000 0.000000 -124.623168 48.823161 58.644864 -146.092324 42.309513 -1.020292 -147.763537 -9.451877 -7.462958 70.217912 27.796302 -62.144220 0.000000 0.000000 0.000000 0.000000 0.000000 0.000000 -6.630380 -2.731340 0.054220 14.183163 3.808634 -1.505921 0.766682 19.145945 -10.108862 2.216744 -23.729977 11.809802 0.000000 0.000000 0.000000 0.000000 0.000000 0.000000 -0.562369 -4.599285 -13.798507 8.252714 2.477409 1.279145 -10.304983 9.495637 8.795750 0.000000 0.000000 0.000000 -3.244533 0.161527 -13.383972 9.434856 -1.606962 1.338365 -0.221371 2.208245 -11.902364 0.000000 0.000000 0.000000
-36.797345 69.700325 334.107715 -3.133139 2.135997 12.717389 -0.137128 0.049115 -12.759227 -0.099693 0.098309 -0.150242 -28.583283 7.484354 7.693349 0.000000 0.000000 0.000000 -121.065262 49.597146 56.276720 -146.124928 41.687717 -3.427496 -149.588621 -7.615339 -9.708439 75.028612 33.568198 -63.158304 0.000000 0.000000 0.000000 0.000000 0.000000 0.000000 -6.052715 -2.792824 0.041604 12.879320 3.582082 -1.319999 0.984917 19.512821 -10.685650 4.581065 -21.824827 12.918105 0.000000 0.000000 0.000000 0.000000 0.000000 0.000000 -0.509497 -4.677391 -13.705986 8.152147 2.503368 1.261221 -10.335495 8.373702 8.343534 0.000000 0.000000 0.000000 -3.284322 0.009571 -13.343898 9.407541 -1.452120 1.350091 -0.232892 2.166132 -11.918631 0.000000 0.000000 0.000000
-36.795113 69.697453 334.097603 -3.036871 2.178237 12.662554 -0.045575 0.059500 -12.696670 -0.025942 0.094068 -0.136329 -26.849215 7.492468 7.437578 0.000000 0.000000 0.000000 -118.753814 50.328867 55.106459 -146.856799 41.083510 -3.291268 -149.585847 -6.932296 -9.128198 74.748215 33.355541 -63.760497 0.000000 0.000000 0.000000 0.000000 0.000000 0.000000 -5.636297 -2.879140 0.007970 11.866125 3.585091 -1.208485 0.130217 18.373432 -10.779011 6.049664 -18.426430 13.094491 0.000000 0.000000 0.000000 0.000000 0.000000 0.000000 -0.553557 -4.714218 -13.640041 7.972024 2.429019 1.232733 -8.327840 6.536536 5.451266 0.000000 0.000000 0.000000 -3.388632 -0.181703 -13.335721 9.355057 -1.198085 1.365223 -0.235679 2.077876 -11.865632 0.000000 0.000000 0.000000
-36.769611 69.681913 334.092285 -2.882079 2.212193 12.680892 0.074332 0.066036 -12.705403 0.055092 0.082891 -0.118201 -25.304326 7.624814 7.280365 0.000000 0.000000 0.000000 -114.824032 51.503075 53.276527 -148.261284 40.603260 -3.695829 -149.464780 -5.685325 -9.074638 73.988562 34.269560 -63.093935 0.000000 0.000000 0.000000 0.000000 0.000000 0.000000 -5.265618 -2.827144 0.019269 10.851193 3.315012 -1.112822 -1.279552 16.946510 -10.988062 8.445492 -15.960345 13.820902 0.000000 0.000000 0.000000 0.000000 0.000000 0.000000 -0.552391 -4.775702 -13.622541 7.486671 2.388474 1.170611 -6.155421 2.012578 1.347888 0.000000 0.000000 0.000000 -3.547820 -0.388031 -13.411482 9.251480 -0.869613 1.376793 -0.243756 1.938505 -11.644338 0.000000 0.000000 0.000000
-36.754520 69.655081 334.083203 -2.714039 2.250966 12.695979 0.207666 0.052301 -12.710240 0.114825 0.071546 -0.100614 -23.138163 7.745768 7.038914 0.000000 0.000000 0.000000 -110.101329 52.832953 51.176567 -149.716720 39.575670 -3.102056 -149.638938 -4.540363 -7.834504 72.149667 36.857253 -59.728191 0.000000 0.000000 0.000000 0.000000 0.000000 0.000000 -4.846367 -2.723463 0.046862 9.687035 2.801494 -0.980271 -2.787653 16.630931 -12.115422 11.093528 -14.075871 15.370874 0.000000 0.000000 0.000000 0.000000 0.000000 0.000000 -0.402225 -4.902775 -13.559859 6.599175 2.325308 1.054307 -3.237645 -4.538978 -4.507761 0.000000 0.000000 0.000000 -3.647752 -0.616582 -13.473002 9.068963 -0.548182 1.376951 -0.254165 1.804403 -11.403855 0.000000 0.000000 0.000000
-36.719870 69.614360 334.080594 -2.507530 2.288822 12.773916 0.365225 0.043306 -12.776179 0.177974 0.059660 -0.080083 -20.782298 7.787414 6.714928 0.000000 0.000000 0.000000 -105.054601 54.240776 49.010116 -151.561041 38.887255 -2.536739 -149.563546 -3.058257 -6.972406 69.233494 36.657237 -57.473268 0.000000 0.000000 0.000000 0.000000 0.000000 0.000000 -4.589592 -2.624672 0.066605 8.867267 2.487912 -0.938234 -7.041213 13.655707 -13.338498 15.598977 -10.441237 17.146816 0.000000 0.000000 0.000000 0.000000 0.000000 0.000000 -0.245710 -5.067080 -13.551242 5.712836 2.399471 0.946354 -1.966652 -7.682753 -7.023934 0.000000 0.000000 0.000000 -3.766111 -0.814558 -13.589223 8.849939 -0.263099 1.368066 -0.258624 1.678838 -11.104864 0.000000 0.000000 0.000000
-36.682239 69.568209 334.085556 -2.251542 2.317884 12.904154 0.528196 0.013100 -12.894069 0.216665 0.038785 -0.059340 -18.805598 7.907541 6.476208 0.000000 0.000000 0.000000 -99.165184 55.530230 46.153746 -154.293537 38.177973 -1.764593 -148.855860 -1.967918 -6.221667 63.826921 34.714736 -53.303799 0.000000 0.000000 0.000000 0.000000 0.000000 0.000000 -4.629654 -2.453907 0.096109 8.626705 2.363926 -1.013864 -12.227034 9.571972 -14.582944 19.213493 -5.295080 17.809121 0.000000 0.000000 0.000000 0.000000 0.000000 0.000000 -0.096169 -5.209663 -13.582424 4.720099 2.471241 0.827793 -1.780846 -7.506892 -6.456972 0.000000 0.000000 0.000000 -3.879242 -0.951466 -13.736719 8.567356 -0.056952 1.341859 -0.232229 1.576215 -10.826957 0.000000 0.000000 0.000000
-36.626359 69.506695 334.098398 -1.933430 2.344416 13.094923 0.708410 -0.029912 -13.070960 0.250482 0.015985 -0.035472 -16.767719 7.838863 6.098248 0.000000 0.000000 0.000000 -93.125862 56.588081 42.968464 -157.514827 37.963660 -2.150570 -147.608302 -0.211747 -7.457137 58.990609 31.936253 -50.017103 0.000000 0.000000 0.000000 0.000000 0.000000 0.000000 -4.851359 -2.393888 0.070688 8.415865 2.393314 -1.052317 -17.478116 5.460303 -16.202943 23.096667 -0.345968 18.200638 0.000000 0.000000 0.000000 0.000000 0.000000 0.000000 -0.051438 -5.325065 -13.686990 3.913918 2.646816 0.742782 -2.831124 -4.502615 -3.148073 0.000000 0.000000 0.000000 -3.933092 -1.053803 -13.914456 8.076711 0.081326 1.274172 -0.105511 1.488727 -10.544756 0.000000 0.000000 0.000000
-36.568034 69.438113 334.116112 -1.539238 2.363195 13.313614 0.865008 -0.083863 -13.276377 0.254717 -0.009868 -0.011867 -15.279137 7.664976 5.715672 0.000000 0.000000 0.000000 -87.175177 57.333526 39.598189 -160.480041 37.374172 -2.226909 -146.559955 0.187414 -7.829316 54.889940 29.080086 -48.094402 0.000000 0.000000 0.000000 0.000000 0.000000 0.000000 -4.869027 -2.199761 0.087228 7.898970 2.133487 -1.069301 -11.474454 10.642941 -14.543852 16.916357 -8.801160 18.017248 0.000000 0.000000 0.000000 0.000000 0.000000 0.000000 -0.122040 -5.378387 -13.830884 2.981226 2.756758 0.648167 -3.839861 -1.822353 0.068896 0.000000 0.000000 0.000000 -4.001009 -1.097034 -14.099784 7.500909 0.132064 1.184608 0.078267 1.438760 -10.318085 0.000000 0.000000 0.000000
